# xmcd
#
# Track frame offsets:
#	182
#	13902
#	27412
#	39655
#	53442
#	68357
#	80955
#	90270
#	103287
#	115170
#
# Disc length: 1727 seconds
#
# Revision: 4
# Processed by: cddbd v1.5.2PL0 Copyright (c) Steve Scherf et al.
# Submitted via: audiograbber 1.83.01
#
DISCID=7906bd0a
DTITLE=Various Artist - Billboard Pop Memories 1945-49
DYEAR=2000
DGENRE=Vocal
TTITLE0=Vaughn Monroe and His Orchestra - Riders In The Sky ( A Cowboy Legend)
TTITLE1=Peggy Lee - Manana (Is Soon Enough For Me)
TTITLE2=Ted Weems and His Orchestra - Heartaches
TTITLE3=Swing and Sway With Sammy Kaye - The Old Lamp-Lighter
TTITLE4=Les Brown and His Orchestra - My Dreams Are Getting Better All The Time
TTITLE5=Ink Spots - The Gypsy
TTITLE6=Dinah Shore and Her Happy Valley Boys - Buttons And Bows
TTITLE7=Frankie Carle and His Orchestra - Rumors Are Flying
TTITLE8=Russ Morgan and His Orchestra - Cruising Down The River
TTITLE9=Les Brown and His Orchestra - Sentimental Journey
EXTD=
EXTT0=
EXTT1=
EXTT2=
EXTT3=
EXTT4=
EXTT5=
EXTT6=
EXTT7=
EXTT8=
EXTT9=
PLAYORDER=
